<?xml version="1.0" encoding="utf-8"?>
<!-- Generator: Adobe Illustrator 24.0.1, SVG Export Plug-In . SVG Version: 6.00 Build 0)  -->
<svg version="1.1" id="Layer_1" xmlns="http://www.w3.org/2000/svg" xmlns:xlink="http://www.w3.org/1999/xlink" x="0px" y="0px"
	 viewBox="0 0 15 15" style="enable-background:new 0 0 15 15;" xml:space="preserve">
<style type="text/css">
	.st0{fill:#FFFFFF;}
</style>
<path class="st0" d="M7.5,0C3.4,0,0,3.4,0,7.5S3.4,15,7.5,15S15,11.6,15,7.5S11.6,0,7.5,0z M10.8,8.1H8.1v2.7c0,0.3-0.3,0.6-0.6,0.6
	s-0.6-0.3-0.6-0.6V8.1H4.2c-0.3,0-0.6-0.3-0.6-0.6s0.3-0.6,0.6-0.6h2.7V4.2c0-0.3,0.3-0.6,0.6-0.6s0.6,0.3,0.6,0.6v2.7h2.7
	c0.3,0,0.6,0.3,0.6,0.6S11.1,8.1,10.8,8.1z"/>
</svg>
