<?xml version="1.0" encoding="utf-8"?>
<!-- Generator: Adobe Illustrator 24.0.1, SVG Export Plug-In . SVG Version: 6.00 Build 0)  -->
<svg version="1.1" id="Layer_1" xmlns="http://www.w3.org/2000/svg" xmlns:xlink="http://www.w3.org/1999/xlink" x="0px" y="0px"
	 viewBox="0 0 496.2 496.2" style="enable-background:new 0 0 496.2 496.2;" xml:space="preserve">
<style type="text/css">
	.st0{fill:#4D4C4D;}
</style>
<title>message</title>
<path class="st0" d="M248.1,0C111.3,0,0,111.3,0,248.1s111.3,248.1,248.1,248.1s248.1-111.3,248.1-248.1
	C496.1,111.3,384.9,0,248.1,0z M248.6,363.6c-17.2,0-34.3-2.2-50.9-6.5c-14.9,15.4-35.5,24.2-56.9,24.2h-21.5l15.2-15.2
	c8.2-8.2,13.3-18.9,14.7-30.4c-35-23-52.5-56.3-52.5-91.2c0-64.4,59.2-129.9,151.9-129.9c98.2,0,150.9,60.2,150.9,124.2
	C399.5,303.4,346.3,363.6,248.6,363.6z"/>
</svg>
