<svg xmlns="http://www.w3.org/2000/svg" xmlns:xlink="http://www.w3.org/1999/xlink" width="496.2" height="496.2" viewBox="0 0 496.2 496.2"><defs><style>.a{fill:url(#a);}</style><linearGradient id="a" x1="248.1" y1="496.2" x2="248.1" gradientUnits="userSpaceOnUse"><stop offset="0" stop-color="#486db4"/><stop offset="1" stop-color="#d74b9a"/></linearGradient></defs><title>message-active-01</title><path class="a" d="M248.1,0C111.3,0,0,111.3,0,248.1S111.3,496.2,248.1,496.2,496.2,384.9,496.2,248.1C496.1,111.3,384.9,0,248.1,0Zm.513,363.6194a204.64,204.64,0,0,1-50.8955-6.4738,79.5019,79.5019,0,0,1-56.9226,24.2461H119.3414l15.17-15.17a51.3338,51.3338,0,0,0,14.66-30.3585c-35.0273-22.9866-52.46-56.287-52.46-91.1976,0-64.4059,59.1951-129.8575,151.9015-129.8575,98.2123,0,150.8755,60.2278,150.8755,124.2148C399.4885,303.4321,346.269,363.6194,248.613,363.6194Z"/></svg>