<svg xmlns="http://www.w3.org/2000/svg" xmlns:xlink="http://www.w3.org/1999/xlink" width="496.2" height="496.2" viewBox="0 0 496.2 496.2"><defs><style>.a{fill:url(#a);}</style><linearGradient id="a" x1="248.1" y1="496.2" x2="248.1" gradientUnits="userSpaceOnUse"><stop offset="0" stop-color="#486db4"/><stop offset="1" stop-color="#d74b9a"/></linearGradient></defs><title>paws-active-01</title><path class="a" d="M248.1,0C111.3,0,0,111.3,0,248.1S111.3,496.2,248.1,496.2,496.2,384.9,496.2,248.1C496.1,111.3,384.9,0,248.1,0ZM399.8229,246.244c10.8518-9.5117,25.2714-10.8079,32.2071-2.8951s3.761,22.0382-7.091,31.55-25.2714,10.8079-32.207,2.8951S388.971,255.7557,399.8229,246.244ZM346.146,223.0792c4.5413-13.6972,16.3191-22.1166,26.3069-18.8053s14.4025,17.1,9.8612,30.7967-16.3192,22.1166-26.3067,18.8053S341.6049,236.7764,346.146,223.0792Zm-43.7383,9.71c2.3209-12.6981,11.7084-21.62,20.9674-19.9278s14.8834,13.358,12.5626,26.0561-11.7081,21.62-20.9671,19.9279-14.8835-13.3577-12.5629-26.0554Zm-64.8735-38.6767c1.746-19.9814,14.9727-35.1473,29.5424-33.874s24.9654,18.5033,23.2192,38.4847c-1.5944,18.2433-12.76,32.4649-25.779,33.833a19.6045,19.6045,0,0,1-3.7635.0409c-7.8556-.6865-14.4929-6.0167-18.6727-13.9108a44.6034,44.6034,0,0,1-4.5464-24.5734Zm-47.07-65.0332c16.1965-2.23,31.8064,13.9681,34.8655,36.1807,2.6869,19.51-5.2045,37.1668-18.1393,42.6865a22.0045,22.0045,0,0,1-5.6483,1.5718,23.0417,23.0417,0,0,1-12.8912-2.051c-10.8925-5.0219-19.7508-17.9825-21.9745-34.13-3.0588-22.2119,7.5912-42.0273,23.788-44.2573ZM88.8218,172.9524c12.8371-10.125,34.5-4.0611,48.386,13.5441,10.9442,13.8758,13.753,30.7554,8.1826,42.2518a22.47,22.47,0,0,1-6.284,7.9583c-.2.1578-.4083.3-.6127.45C125.59,246.628,104.39,240.4933,90.72,223.1624,76.8347,205.5572,75.9846,183.0773,88.8218,172.9524ZM110.4591,294.194c-10.1138,10.5645-30.0577,7.8847-44.5464-5.9856s-18.0349-33.6786-7.921-44.2431,30.0577-7.8847,44.5463,5.9856S120.5729,283.63,110.4591,294.194Zm51.0421,73.1316c-11.8589,0-21.4817-2.3138-27.01-7.5677-28.7893-27.3615-.1655-122.2692,40.1437-136.4041a63.3977,63.3977,0,0,1,21.046-3.4344c40.7324,0,86.5573,34.222,96.1278,71.224,9.1113,35.2221-80.4073,76.1822-130.3075,76.1822ZM380.8464,355.21c-14.5547,16.1057-61.789-11.596-82.6812-37.0872,8.0233-12.503,7.8076-23.1617,5.9939-30.1733a77.5134,77.5134,0,0,0-3.4114-10.0982c20.1188-14.9659,58.6133-22.1044,75.02-9.6141C399.8087,286.54,400.2761,333.71,380.8464,355.21ZM429.97,321.66c-11.3551,6.1394-24.1891,4.4044-28.6658-3.8753s1.0993-19.9687,12.4543-26.1081,24.1891-4.4044,28.6658,3.8753S441.3251,315.52,429.97,321.66Z"/></svg>