<?xml version="1.0" encoding="utf-8"?>
<!-- Generator: Adobe Illustrator 24.0.1, SVG Export Plug-In . SVG Version: 6.00 Build 0)  -->
<svg version="1.1" id="Layer_1" xmlns="http://www.w3.org/2000/svg" xmlns:xlink="http://www.w3.org/1999/xlink" x="0px" y="0px"
	 viewBox="0 0 496.2 496.2" style="enable-background:new 0 0 496.2 496.2;" xml:space="preserve">
<style type="text/css">
	.st0{fill:#4D4C4D;}
</style>
<title>paws</title>
<path class="st0" d="M248.1,0C111.3,0,0,111.3,0,248.1s111.3,248.1,248.1,248.1s248.1-111.3,248.1-248.1
	C496.1,111.3,384.9,0,248.1,0z M399.8,246.2c10.9-9.5,25.3-10.8,32.2-2.9s3.8,22-7.1,31.5s-25.3,10.8-32.2,2.9
	S389,255.8,399.8,246.2z M346.1,223.1c4.5-13.7,16.3-22.1,26.3-18.8s14.4,17.1,9.9,30.8S366,257.2,356,253.9
	S341.6,236.8,346.1,223.1z M302.4,232.8c2.3-12.7,11.7-21.6,21-19.9s14.9,13.4,12.6,26.1s-11.7,21.6-21,19.9
	S300.1,245.5,302.4,232.8L302.4,232.8z M237.5,194.1c1.7-20,15-35.1,29.5-33.9c14.6,1.3,25,18.5,23.2,38.5
	c-1.6,18.2-12.8,32.5-25.8,33.8c-1.3,0.1-2.5,0.1-3.8,0c-7.9-0.7-14.5-6-18.7-13.9C238.3,211.1,236.7,202.6,237.5,194.1L237.5,194.1
	z M190.5,129.1c16.2-2.2,31.8,14,34.9,36.2c2.7,19.5-5.2,37.2-18.1,42.7c-1.8,0.8-3.7,1.3-5.6,1.6c-4.4,0.6-8.9-0.1-12.9-2.1
	c-10.9-5-19.8-18-22-34.1C163.6,151.1,174.3,131.3,190.5,129.1L190.5,129.1z M88.8,173c12.8-10.1,34.5-4.1,48.4,13.5
	c10.9,13.9,13.8,30.8,8.2,42.3c-1.5,3.1-3.6,5.8-6.3,8c-0.2,0.2-0.4,0.3-0.6,0.4c-12.9,9.5-34.1,3.3-47.8-14
	C76.8,205.6,76,183.1,88.8,173z M110.5,294.2c-10.1,10.6-30.1,7.9-44.5-6s-18-33.7-7.9-44.2s30.1-7.9,44.5,6
	S120.6,283.6,110.5,294.2z M161.5,367.3c-11.9,0-21.5-2.3-27-7.6c-28.8-27.4-0.2-122.3,40.1-136.4c6.8-2.3,13.9-3.5,21-3.4
	c40.7,0,86.6,34.2,96.1,71.2C300.9,326.4,211.4,367.3,161.5,367.3L161.5,367.3z M380.8,355.2c-14.6,16.1-61.8-11.6-82.7-37.1
	c8-12.5,7.8-23.2,6-30.2c-0.9-3.4-2-6.8-3.4-10.1c20.1-15,58.6-22.1,75-9.6C399.8,286.5,400.3,333.7,380.8,355.2z M430,321.7
	c-11.4,6.1-24.2,4.4-28.7-3.9s1.1-20,12.5-26.1s24.2-4.4,28.7,3.9S441.3,315.5,430,321.7z"/>
</svg>
