<?xml version="1.0" encoding="utf-8"?>
<!-- Generator: Adobe Illustrator 24.0.1, SVG Export Plug-In . SVG Version: 6.00 Build 0)  -->
<svg version="1.1" id="Layer_1" xmlns="http://www.w3.org/2000/svg" xmlns:xlink="http://www.w3.org/1999/xlink" x="0px" y="0px"
	 viewBox="0 0 496.2 496.2" style="enable-background:new 0 0 496.2 496.2;" xml:space="preserve">
<style type="text/css">
	.st0{fill:#454545;}
</style>
<title>user</title>
<path class="st0" d="M248.1,0C111.3,0,0,111.3,0,248.1s111.3,248.1,248.1,248.1s248.1-111.3,248.1-248.1
	C496.1,111.3,384.9,0,248.1,0z M193.9,116.3c28.8-28.9,75.6-28.9,104.5,0c0,0,0,0,0,0c14.1,13.7,21.9,32.6,21.6,52.2
	c0,40.8-33.1,73.9-73.9,73.9c-40.8,0-73.9-33.1-73.9-73.9C172,148.9,179.8,130,193.9,116.3z M361,387.3c-9.9,9.4-23,14.2-39,14.2
	H174.2c-16,0-29.1-4.8-39-14.2c-10-9.6-15.1-22.5-15.1-38.5c0-6.2,0.2-12.2,0.6-18.1c0.5-6.5,1.3-13,2.5-19.4
	c1.2-6.6,2.8-13.1,4.8-19.5c2-6.3,4.7-12.4,8-18.2c3.2-5.8,7.3-11.1,12.1-15.7c5-4.7,10.9-8.4,17.4-10.9c7.1-2.7,14.6-4.1,22.2-4
	c3.1,0,6.2,1.3,12,5.1c3.7,2.4,7.9,5.1,12.5,8.1c5.1,3,10.5,5.4,16.2,7.1c12.9,4.3,26.7,4.3,39.6,0c5.7-1.7,11.1-4.1,16.2-7.1
	c4.7-3,8.9-5.7,12.5-8.1c5.9-3.8,8.9-5.1,12-5.1c7.6-0.1,15.1,1.3,22.2,4c6.4,2.5,12.3,6.2,17.4,10.9c4.8,4.6,8.8,9.9,12.1,15.7
	c3.3,5.8,6,11.9,8,18.2c2,6.4,3.6,12.9,4.8,19.5c1.2,6.4,2,12.9,2.5,19.4c0.4,5.8,0.6,11.9,0.6,18.1
	C376.1,364.8,371,377.7,361,387.3z"/>
</svg>
