<svg xmlns="http://www.w3.org/2000/svg" xmlns:xlink="http://www.w3.org/1999/xlink" width="496.2" height="496.2" viewBox="0 0 496.2 496.2"><defs><style>.a{fill:url(#a);}</style><linearGradient id="a" x1="248.1" y1="496.2" x2="248.1" gradientUnits="userSpaceOnUse"><stop offset="0" stop-color="#486db4"/><stop offset="1" stop-color="#d74b9a"/></linearGradient></defs><title>user-active-01</title><path class="a" d="M248.1,0C111.3,0,0,111.3,0,248.1S111.3,496.2,248.1,496.2,496.2,384.9,496.2,248.1C496.1,111.3,384.9,0,248.1,0ZM193.9159,116.3416a73.88,73.88,0,0,1,104.4821-.0168l.0145.0145a71.5111,71.5111,0,0,1,21.65,52.2483,73.8981,73.8981,0,0,1-147.7962,0A71.5039,71.5039,0,0,1,193.9159,116.3416ZM360.9532,387.2833c-9.9179,9.438-23.0332,14.2225-38.9879,14.2225H174.2347c-15.9547,0-29.0747-4.7869-38.99-14.2225-10.0395-9.562-15.1307-22.5276-15.1307-38.5431,0-6.1539.206-12.2469.6133-18.1176a181.86,181.86,0,0,1,2.4859-19.3932A153.1153,153.1153,0,0,1,127.979,291.74a96.46,96.46,0,0,1,8.0124-18.1807A68.6057,68.6057,0,0,1,148.07,257.8155,53.2276,53.2276,0,0,1,165.4287,246.91a59.9082,59.9082,0,0,1,22.1554-4.0144c3.132,0,6.1633,1.2851,12.0058,5.0935,3.6539,2.3806,7.8673,5.0959,12.5231,8.071a71.5226,71.5226,0,0,0,16.1771,7.13,62.8634,62.8634,0,0,0,39.6011,0,71.6922,71.6922,0,0,0,16.1888-7.1324c4.7-3.0031,8.9113-5.7185,12.5114-8.0663,5.85-3.8084,8.8785-5.0935,12.01-5.0935a59.9856,59.9856,0,0,1,22.1577,4.01,53.2768,53.2768,0,0,1,17.3568,10.9056,68.6061,68.6061,0,0,1,12.083,15.7464,96.27,96.27,0,0,1,8.0125,18.1784A152.7448,152.7448,0,0,1,372.98,311.23a182.5178,182.5178,0,0,1,2.4859,19.3862c.41,5.8426.618,11.94.62,18.1224C376.0862,364.76,370.9951,377.7283,360.9532,387.2833Z"/></svg>